<mxfile host="app.diagrams.net" modified="2024-05-09T02:17:03.834Z" agent="Mozilla/5.0 (Windows NT 10.0; Win64; x64) AppleWebKit/537.36 (KHTML, like Gecko) Chrome/124.0.0.0 Safari/537.36" version="24.3.1" etag="xG8zpLYMLcJ5ruNyjFxw" type="github">
  <diagram name="페이지-1" id="MSLs45I4vWgsS8MdW5tp">
    <mxGraphModel>
      <root>
        <mxCell id="0" />
        <mxCell id="1" parent="0" />
      </root>
    </mxGraphModel>
  </diagram>
</mxfile>
